# xmcd CD database file
#
# Track frame offsets:
#	182
#	30680
#	49530
#	87690
#	115297
#	148150
#	170467
#	196702
#	219317
#
# Disc length: 3273 seconds
#
# Revision: 0
# Processed by: cddbd v1.5.1PL0 Copyright (c) Steve Scherf et al.
# Submitted via: CDex 1.51
#
DISCID=7c0cc709
DTITLE=Steve Lacy - Dizionario Enciclopedico del Jazz - Volume 23
DYEAR=1991
DGENRE=Jazz
TTITLE0=Alone Together
TTITLE1=Rockin' In Rhythm
TTITLE2=Easy To Love
TTITLE3=Four In One
TTITLE4=Let's Call This
TTITLE5=Ask Me Now
TTITLE6=The Mistery Song
TTITLE7=Evidence
TTITLE8=Something To Live For
EXTD=YEAR: 1991
EXTT0=
EXTT1=
EXTT2=
EXTT3=
EXTT4=
EXTT5=
EXTT6=
EXTT7=
EXTT8=
PLAYORDER=
